M48
; DRILL file {KiCad 9.0.4} date 2025-09-06T12:28:13+0300
; FORMAT={3:3/ absolute / metric / suppress leading zeros}
; #@! TF.CreationDate,2025-09-06T12:28:13+03:00
; #@! TF.GenerationSoftware,Kicad,Pcbnew,9.0.4
; #@! TF.FileFunction,Plated,1,4,PTH
FMAT,2
METRIC,TZ
; #@! TA.AperFunction,Plated,PTH,ViaDrill
T1C0.300
; #@! TA.AperFunction,Plated,PTH,ComponentDrill
T2C1.200
%
G90
G05
T1
X140000Y-93800
T2
X85500Y-79500
X85500Y-82040
X85500Y-84580
X85500Y-114460
X85500Y-117000
X85500Y-119540
X101700Y-78220
X101700Y-80880
X101700Y-83420
X101700Y-85960
X101700Y-88500
X101700Y-91040
X101700Y-93580
X101700Y-96120
X101700Y-98540
X101700Y-101080
X101700Y-103620
X101700Y-106160
X101700Y-108700
X101700Y-111240
X101700Y-113780
X105760Y-52000
X108300Y-52000
X110840Y-52000
X113380Y-52000
X115920Y-52000
X118460Y-52000
X121000Y-52000
X123540Y-52000
X127100Y-78220
X127100Y-80760
X127100Y-83300
X127100Y-85840
X127100Y-88380
X127100Y-90920
X127100Y-93460
X127100Y-96000
X127100Y-98540
X127100Y-101080
X127100Y-103620
X127100Y-106160
X127100Y-108700
X127100Y-111240
X127100Y-113780
X145500Y-79500
X145500Y-82040
X145500Y-84580
X145500Y-114960
X145500Y-117500
X145500Y-120040
M30
