G04 #@! TF.GenerationSoftware,KiCad,Pcbnew,9.0.4*
G04 #@! TF.CreationDate,2025-09-06T12:28:32+03:00*
G04 #@! TF.ProjectId,esp32 flight controller,65737033-3220-4666-9c69-67687420636f,rev?*
G04 #@! TF.SameCoordinates,Original*
G04 #@! TF.FileFunction,Copper,L4,Bot*
G04 #@! TF.FilePolarity,Positive*
%FSLAX46Y46*%
G04 Gerber Fmt 4.6, Leading zero omitted, Abs format (unit mm)*
G04 Created by KiCad (PCBNEW 9.0.4) date 2025-09-06 12:28:32*
%MOMM*%
%LPD*%
G01*
G04 APERTURE LIST*
G04 #@! TA.AperFunction,ComponentPad*
%ADD10C,1.900000*%
G04 #@! TD*
G04 #@! TA.AperFunction,ComponentPad*
%ADD11C,1.905000*%
G04 #@! TD*
G04 #@! TA.AperFunction,ViaPad*
%ADD12C,0.600000*%
G04 #@! TD*
G04 #@! TA.AperFunction,Conductor*
%ADD13C,0.400000*%
G04 #@! TD*
G04 APERTURE END LIST*
D10*
X85500000Y-79500000D03*
X85500000Y-82040000D03*
X85500000Y-84580000D03*
D11*
X101700000Y-78220000D03*
X101700000Y-80880000D03*
X101700000Y-83420000D03*
X101700000Y-85960000D03*
X101700000Y-88500000D03*
X101700000Y-91040000D03*
X101700000Y-93580000D03*
X101700000Y-96120000D03*
X101700000Y-98540000D03*
X101700000Y-101080000D03*
X101700000Y-103620000D03*
X101700000Y-106160000D03*
X101700000Y-108700000D03*
X101700000Y-111240000D03*
X101700000Y-113780000D03*
X127100000Y-78220000D03*
X127100000Y-80760000D03*
X127100000Y-83300000D03*
X127100000Y-85840000D03*
X127100000Y-88380000D03*
X127100000Y-90920000D03*
X127100000Y-93460000D03*
X127100000Y-96000000D03*
X127100000Y-98540000D03*
X127100000Y-101080000D03*
X127100000Y-103620000D03*
X127100000Y-106160000D03*
X127100000Y-108700000D03*
X127100000Y-111240000D03*
X127100000Y-113780000D03*
X105760000Y-52000000D03*
X108300000Y-52000000D03*
X110840000Y-52000000D03*
X113380000Y-52000000D03*
X115920000Y-52000000D03*
X118460000Y-52000000D03*
X121000000Y-52000000D03*
X123540000Y-52000000D03*
D10*
X85500000Y-119540000D03*
X85500000Y-117000000D03*
X85500000Y-114460000D03*
X145500000Y-114960000D03*
X145500000Y-117500000D03*
X145500000Y-120040000D03*
X145500000Y-79500000D03*
X145500000Y-82040000D03*
X145500000Y-84580000D03*
D12*
X140000000Y-93800000D03*
D13*
X140000000Y-100880000D02*
X127100000Y-113780000D01*
X140000000Y-93800000D02*
X140000000Y-100880000D01*
G04 #@! TA.AperFunction,Conductor*
G36*
X150942539Y-31020185D02*
G01*
X150988294Y-31072989D01*
X150999500Y-31124500D01*
X150999500Y-125375500D01*
X150979815Y-125442539D01*
X150927011Y-125488294D01*
X150875500Y-125499500D01*
X80624500Y-125499500D01*
X80557461Y-125479815D01*
X80511706Y-125427011D01*
X80500500Y-125375500D01*
X80500500Y-116885837D01*
X84049500Y-116885837D01*
X84049500Y-117114162D01*
X84085215Y-117339660D01*
X84155770Y-117556803D01*
X84259421Y-117760228D01*
X84393621Y-117944937D01*
X84555063Y-118106379D01*
X84555069Y-118106383D01*
X84642191Y-118169683D01*
X84684857Y-118225013D01*
X84690835Y-118294627D01*
X84658228Y-118356421D01*
X84642191Y-118370317D01*
X84555069Y-118433616D01*
X84555060Y-118433623D01*
X84393622Y-118595061D01*
X84259421Y-118779771D01*
X84155770Y-118983196D01*
X84085215Y-119200339D01*
X84049500Y-119425837D01*
X84049500Y-119654162D01*
X84085215Y-119879660D01*
X84155770Y-120096803D01*
X84184973Y-120154116D01*
X84259421Y-120300228D01*
X84393621Y-120484937D01*
X84555063Y-120646379D01*
X84739772Y-120780579D01*
X84835884Y-120829550D01*
X84943196Y-120884229D01*
X84943198Y-120884229D01*
X84943201Y-120884231D01*
X85059592Y-120922049D01*
X85160339Y-120954784D01*
X85385838Y-120990500D01*
X85385843Y-120990500D01*
X85614162Y-120990500D01*
X85839660Y-120954784D01*
X86056799Y-120884231D01*
X86260228Y-120780579D01*
X86444937Y-120646379D01*
X86606379Y-120484937D01*
X86740579Y-120300228D01*
X86844231Y-120096799D01*
X86913799Y-119882692D01*
X86913800Y-119882690D01*
X86914782Y-119879667D01*
X86914782Y-119879665D01*
X86914784Y-119879660D01*
X86933184Y-119763481D01*
X86950500Y-119654162D01*
X86950500Y-119425837D01*
X86914784Y-119200339D01*
X86844229Y-118983196D01*
X86770989Y-118839456D01*
X86740579Y-118779772D01*
X86606379Y-118595063D01*
X86444937Y-118433621D01*
X86357807Y-118370317D01*
X86315143Y-118314988D01*
X86309164Y-118245374D01*
X86341770Y-118183579D01*
X86357807Y-118169683D01*
X86444937Y-118106379D01*
X86606379Y-117944937D01*
X86740579Y-117760228D01*
X86844231Y-117556799D01*
X86914784Y-117339660D01*
X86950500Y-117114162D01*
X86950500Y-116885837D01*
X86914784Y-116660339D01*
X86844229Y-116443196D01*
X86786714Y-116330317D01*
X86740579Y-116239772D01*
X86606379Y-116055063D01*
X86444937Y-115893621D01*
X86438418Y-115888885D01*
X86357382Y-115830007D01*
X86314716Y-115774677D01*
X86308738Y-115705064D01*
X86332234Y-115660534D01*
X86333310Y-115646862D01*
X85711059Y-115024612D01*
X85731591Y-115019111D01*
X85868408Y-114940119D01*
X85980119Y-114828408D01*
X86059111Y-114691591D01*
X86064612Y-114671060D01*
X86686862Y-115293310D01*
X86686862Y-115293309D01*
X86740150Y-115219966D01*
X86843769Y-115016604D01*
X86914295Y-114799544D01*
X86950000Y-114574116D01*
X86950000Y-114345883D01*
X86914295Y-114120455D01*
X86843769Y-113903395D01*
X86740148Y-113700030D01*
X86686863Y-113626689D01*
X86686862Y-113626688D01*
X86064612Y-114248939D01*
X86059111Y-114228409D01*
X85980119Y-114091592D01*
X85868408Y-113979881D01*
X85731591Y-113900889D01*
X85711058Y-113895387D01*
X86333309Y-113273137D01*
X86333309Y-113273135D01*
X86259969Y-113219851D01*
X86056604Y-113116230D01*
X85839544Y-113045704D01*
X85614116Y-113010000D01*
X85385884Y-113010000D01*
X85160455Y-113045704D01*
X84943395Y-113116230D01*
X84740035Y-113219848D01*
X84740033Y-113219849D01*
X84666689Y-113273135D01*
X84666689Y-113273136D01*
X85288941Y-113895387D01*
X85268409Y-113900889D01*
X85131592Y-113979881D01*
X85019881Y-114091592D01*
X84940889Y-114228409D01*
X84935387Y-114248940D01*
X84313136Y-113626689D01*
X84313135Y-113626689D01*
X84259849Y-113700033D01*
X84259848Y-113700035D01*
X84156230Y-113903395D01*
X84085704Y-114120455D01*
X84050000Y-114345883D01*
X84050000Y-114574116D01*
X84085704Y-114799544D01*
X84156230Y-115016604D01*
X84259851Y-115219969D01*
X84313135Y-115293309D01*
X84313137Y-115293309D01*
X84935387Y-114671059D01*
X84940889Y-114691591D01*
X85019881Y-114828408D01*
X85131592Y-114940119D01*
X85268409Y-115019111D01*
X85288939Y-115024612D01*
X84666688Y-115646862D01*
X84667892Y-115662152D01*
X84685281Y-115684702D01*
X84691260Y-115754315D01*
X84658655Y-115816110D01*
X84642617Y-115830008D01*
X84555063Y-115893620D01*
X84393622Y-116055061D01*
X84259421Y-116239771D01*
X84155770Y-116443196D01*
X84085215Y-116660339D01*
X84049500Y-116885837D01*
X80500500Y-116885837D01*
X80500500Y-81925837D01*
X84049500Y-81925837D01*
X84049500Y-82154162D01*
X84085215Y-82379660D01*
X84155770Y-82596803D01*
X84259421Y-82800228D01*
X84393621Y-82984937D01*
X84555063Y-83146379D01*
X84555066Y-83146381D01*
X84555069Y-83146383D01*
X84642191Y-83209683D01*
X84684857Y-83265013D01*
X84690835Y-83334627D01*
X84658228Y-83396421D01*
X84642191Y-83410317D01*
X84555069Y-83473616D01*
X84555060Y-83473623D01*
X84393622Y-83635061D01*
X84259421Y-83819771D01*
X84155770Y-84023196D01*
X84085215Y-84240339D01*
X84049500Y-84465837D01*
X84049500Y-84694162D01*
X84085215Y-84919660D01*
X84155770Y-85136803D01*
X84259288Y-85339966D01*
X84259421Y-85340228D01*
X84393621Y-85524937D01*
X84555063Y-85686379D01*
X84739772Y-85820579D01*
X84788969Y-85845646D01*
X84943196Y-85924229D01*
X84943198Y-85924229D01*
X84943201Y-85924231D01*
X85035907Y-85954353D01*
X85160339Y-85994784D01*
X85385838Y-86030500D01*
X85385843Y-86030500D01*
X85614162Y-86030500D01*
X85839660Y-85994784D01*
X85841165Y-85994295D01*
X86056799Y-85924231D01*
X86260228Y-85820579D01*
X86444937Y-85686379D01*
X86606379Y-85524937D01*
X86740579Y-85340228D01*
X86844231Y-85136799D01*
X86914784Y-84919660D01*
X86925545Y-84851716D01*
X86950500Y-84694162D01*
X86950500Y-84465837D01*
X86914784Y-84240339D01*
X86844229Y-84023196D01*
X86789550Y-83915884D01*
X86740579Y-83819772D01*
X86606379Y-83635063D01*
X86444937Y-83473621D01*
X86357807Y-83410317D01*
X86315143Y-83354988D01*
X86309164Y-83285374D01*
X86341770Y-83223579D01*
X86357807Y-83209683D01*
X86444937Y-83146379D01*
X86606379Y-82984937D01*
X86740579Y-82800228D01*
X86844231Y-82596799D01*
X86914784Y-82379660D01*
X86925545Y-82311716D01*
X86950500Y-82154162D01*
X86950500Y-81925837D01*
X86914784Y-81700339D01*
X86844229Y-81483196D01*
X86789550Y-81375884D01*
X86740579Y-81279772D01*
X86606379Y-81095063D01*
X86444937Y-80933621D01*
X86438418Y-80928885D01*
X86357382Y-80870007D01*
X86340203Y-80847729D01*
X86320596Y-80827552D01*
X86319153Y-80820431D01*
X86314716Y-80814677D01*
X86312308Y-80786645D01*
X86308054Y-80765646D01*
X100247000Y-80765646D01*
X100247000Y-80994353D01*
X100282778Y-81220246D01*
X100282778Y-81220249D01*
X100353450Y-81437755D01*
X100376606Y-81483201D01*
X100457283Y-81641538D01*
X100591714Y-81826566D01*
X100753434Y-81988286D01*
X100773297Y-82002717D01*
X100837938Y-82049682D01*
X100880603Y-82105013D01*
X100886582Y-82174626D01*
X100853976Y-82236421D01*
X100837938Y-82250318D01*
X100753432Y-82311715D01*
X100591716Y-82473431D01*
X100591716Y-82473432D01*
X100591714Y-82473434D01*
X100544469Y-82538461D01*
X100457283Y-82658461D01*
X100353450Y-82862244D01*
X100282778Y-83079750D01*
X100282778Y-83079753D01*
X100247000Y-83305646D01*
X100247000Y-83534353D01*
X100282778Y-83760246D01*
X100282778Y-83760249D01*
X100353450Y-83977755D01*
X100376606Y-84023201D01*
X100457283Y-84181538D01*
X100591714Y-84366566D01*
X100753434Y-84528286D01*
X100773297Y-84542717D01*
X100837938Y-84589682D01*
X100880603Y-84645013D01*
X100886582Y-84714626D01*
X100853976Y-84776421D01*
X100837938Y-84790318D01*
X100753432Y-84851715D01*
X100591716Y-85013431D01*
X100591716Y-85013432D01*
X100591714Y-85013434D01*
X100544469Y-85078461D01*
X100457283Y-85198461D01*
X100353450Y-85402244D01*
X100282778Y-85619750D01*
X100282778Y-85619753D01*
X100247000Y-85845646D01*
X100247000Y-86074353D01*
X100282778Y-86300246D01*
X100282778Y-86300249D01*
X100353450Y-86517755D01*
X100353452Y-86517758D01*
X100457283Y-86721538D01*
X100591714Y-86906566D01*
X100753434Y-87068286D01*
X100773297Y-87082717D01*
X100837938Y-87129682D01*
X100880603Y-87185013D01*
X100886582Y-87254626D01*
X100853976Y-87316421D01*
X100837938Y-87330318D01*
X100753432Y-87391715D01*
X100591716Y-87553431D01*
X100591716Y-87553432D01*
X100591714Y-87553434D01*
X100544469Y-87618461D01*
X100457283Y-87738461D01*
X100353450Y-87942244D01*
X100282778Y-88159750D01*
X100282778Y-88159753D01*
X100247000Y-88385646D01*
X100247000Y-88614353D01*
X100282778Y-88840246D01*
X100282778Y-88840249D01*
X100353450Y-89057755D01*
X100353452Y-89057758D01*
X100457283Y-89261538D01*
X100591714Y-89446566D01*
X100753434Y-89608286D01*
X100773297Y-89622717D01*
X100837938Y-89669682D01*
X100880603Y-89725013D01*
X100886582Y-89794626D01*
X100853976Y-89856421D01*
X100837938Y-89870318D01*
X100753432Y-89931715D01*
X100591716Y-90093431D01*
X100591716Y-90093432D01*
X100591714Y-90093434D01*
X100544469Y-90158461D01*
X100457283Y-90278461D01*
X100353450Y-90482244D01*
X100282778Y-90699750D01*
X100282778Y-90699753D01*
X100247000Y-90925646D01*
X100247000Y-91154353D01*
X100282778Y-91380246D01*
X100282778Y-91380249D01*
X100353450Y-91597755D01*
X100353452Y-91597758D01*
X100457283Y-91801538D01*
X100591714Y-91986566D01*
X100753434Y-92148286D01*
X100773297Y-92162717D01*
X100837938Y-92209682D01*
X100880603Y-92265013D01*
X100886582Y-92334626D01*
X100853976Y-92396421D01*
X100837938Y-92410318D01*
X100753432Y-92471715D01*
X100591716Y-92633431D01*
X100591716Y-92633432D01*
X100591714Y-92633434D01*
X100544469Y-92698461D01*
X100457283Y-92818461D01*
X100353450Y-93022244D01*
X100282778Y-93239750D01*
X100282778Y-93239753D01*
X100266006Y-93345646D01*
X100247000Y-93465646D01*
X100247000Y-93694354D01*
X100263772Y-93800245D01*
X100282778Y-93920246D01*
X100282778Y-93920249D01*
X100353450Y-94137755D01*
X100396140Y-94221538D01*
X100457283Y-94341538D01*
X100591714Y-94526566D01*
X100753434Y-94688286D01*
X100773297Y-94702717D01*
X100837938Y-94749682D01*
X100880603Y-94805013D01*
X100886582Y-94874626D01*
X100853976Y-94936421D01*
X100837938Y-94950318D01*
X100753432Y-95011715D01*
X100591716Y-95173431D01*
X100591716Y-95173432D01*
X100591714Y-95173434D01*
X100544469Y-95238461D01*
X100457283Y-95358461D01*
X100353450Y-95562244D01*
X100282778Y-95779750D01*
X100282778Y-95779753D01*
X100247000Y-96005646D01*
X100247000Y-96234353D01*
X100282778Y-96460246D01*
X100282778Y-96460249D01*
X100353450Y-96677755D01*
X100353452Y-96677758D01*
X100457283Y-96881538D01*
X100591714Y-97066566D01*
X100753434Y-97228286D01*
X100755360Y-97229685D01*
X100755913Y-97230403D01*
X100757139Y-97231450D01*
X100756919Y-97231707D01*
X100798023Y-97285015D01*
X100803999Y-97354629D01*
X100771392Y-97416423D01*
X100755363Y-97430312D01*
X100753876Y-97431392D01*
X100753431Y-97431716D01*
X100591716Y-97593431D01*
X100591716Y-97593432D01*
X100591714Y-97593434D01*
X100533980Y-97672896D01*
X100457283Y-97778461D01*
X100353450Y-97982244D01*
X100282778Y-98199750D01*
X100282778Y-98199753D01*
X100247000Y-98425646D01*
X100247000Y-98654353D01*
X100282778Y-98880246D01*
X100282778Y-98880249D01*
X100353450Y-99097755D01*
X100353452Y-99097758D01*
X100457283Y-99301538D01*
X100591714Y-99486566D01*
X100753434Y-99648286D01*
X100822923Y-99698773D01*
X100837938Y-99709682D01*
X100880603Y-99765013D01*
X100886582Y-99834626D01*
X100853976Y-99896421D01*
X100837938Y-99910318D01*
X100753432Y-99971715D01*
X100591716Y-100133431D01*
X100591716Y-100133432D01*
X100591714Y-100133434D01*
X100533980Y-100212896D01*
X100457283Y-100318461D01*
X100353450Y-100522244D01*
X100282778Y-100739750D01*
X100282778Y-100739753D01*
X100247000Y-100965646D01*
X100247000Y-101194353D01*
X100282778Y-101420246D01*
X100282778Y-101420249D01*
X100353450Y-101637755D01*
X100353452Y-101637758D01*
X100457283Y-101841538D01*
X100591714Y-102026566D01*
X100753434Y-102188286D01*
X100822923Y-102238773D01*
X100837938Y-102249682D01*
X100880603Y-102305013D01*
X100886582Y-102374626D01*
X100853976Y-102436421D01*
X100837938Y-102450318D01*
X100753432Y-102511715D01*
X100591716Y-102673431D01*
X100591716Y-102673432D01*
X100591714Y-102673434D01*
X100533980Y-102752896D01*
X100457283Y-102858461D01*
X100353450Y-103062244D01*
X100282778Y-103279750D01*
X100282778Y-103279753D01*
X100247000Y-103505646D01*
X100247000Y-103734353D01*
X100282778Y-103960246D01*
X100282778Y-103960249D01*
X100353450Y-104177755D01*
X100353452Y-104177758D01*
X100457283Y-104381538D01*
X100591714Y-104566566D01*
X100753434Y-104728286D01*
X100822923Y-104778773D01*
X100837938Y-104789682D01*
X100880603Y-104845013D01*
X100886582Y-104914626D01*
X100853976Y-104976421D01*
X100837938Y-104990318D01*
X100753432Y-105051715D01*
X100591716Y-105213431D01*
X100591716Y-105213432D01*
X100591714Y-105213434D01*
X100533980Y-105292896D01*
X100457283Y-105398461D01*
X100353450Y-105602244D01*
X100282778Y-105819750D01*
X100282778Y-105819753D01*
X100247000Y-106045646D01*
X100247000Y-106274353D01*
X100282778Y-106500246D01*
X100282778Y-106500249D01*
X100353450Y-106717755D01*
X100353452Y-106717758D01*
X100457283Y-106921538D01*
X100591714Y-107106566D01*
X100753434Y-107268286D01*
X100822923Y-107318773D01*
X100837938Y-107329682D01*
X100880603Y-107385013D01*
X100886582Y-107454626D01*
X100853976Y-107516421D01*
X100837938Y-107530318D01*
X100753432Y-107591715D01*
X100591716Y-107753431D01*
X100591716Y-107753432D01*
X100591714Y-107753434D01*
X100533980Y-107832896D01*
X100457283Y-107938461D01*
X100353450Y-108142244D01*
X100282778Y-108359750D01*
X100282778Y-108359753D01*
X100247000Y-108585646D01*
X100247000Y-108814353D01*
X100282778Y-109040246D01*
X100282778Y-109040249D01*
X100353450Y-109257755D01*
X100353452Y-109257758D01*
X100457283Y-109461538D01*
X100591714Y-109646566D01*
X100753434Y-109808286D01*
X100822923Y-109858773D01*
X100837938Y-109869682D01*
X100880603Y-109925013D01*
X100886582Y-109994626D01*
X100853976Y-110056421D01*
X100837938Y-110070318D01*
X100753432Y-110131715D01*
X100591716Y-110293431D01*
X100591716Y-110293432D01*
X100591714Y-110293434D01*
X100533980Y-110372896D01*
X100457283Y-110478461D01*
X100353450Y-110682244D01*
X100282778Y-110899750D01*
X100282778Y-110899753D01*
X100247000Y-111125646D01*
X100247000Y-111354353D01*
X100282778Y-111580246D01*
X100282778Y-111580249D01*
X100353450Y-111797755D01*
X100353452Y-111797758D01*
X100457283Y-112001538D01*
X100591714Y-112186566D01*
X100753434Y-112348286D01*
X100822923Y-112398773D01*
X100837938Y-112409682D01*
X100880603Y-112465013D01*
X100886582Y-112534626D01*
X100853976Y-112596421D01*
X100837938Y-112610318D01*
X100753432Y-112671715D01*
X100591716Y-112833431D01*
X100591716Y-112833432D01*
X100591714Y-112833434D01*
X100533980Y-112912896D01*
X100457283Y-113018461D01*
X100353450Y-113222244D01*
X100282778Y-113439750D01*
X100282778Y-113439753D01*
X100247000Y-113665646D01*
X100247000Y-113894353D01*
X100282778Y-114120246D01*
X100282778Y-114120249D01*
X100353450Y-114337755D01*
X100375489Y-114381009D01*
X100457283Y-114541538D01*
X100591714Y-114726566D01*
X100753434Y-114888286D01*
X100938462Y-115022717D01*
X101039419Y-115074157D01*
X101142244Y-115126549D01*
X101359751Y-115197221D01*
X101359752Y-115197221D01*
X101359755Y-115197222D01*
X101585646Y-115233000D01*
X101585647Y-115233000D01*
X101814353Y-115233000D01*
X101814354Y-115233000D01*
X102040245Y-115197222D01*
X102040248Y-115197221D01*
X102040249Y-115197221D01*
X102257755Y-115126549D01*
X102257755Y-115126548D01*
X102257758Y-115126548D01*
X102461538Y-115022717D01*
X102646566Y-114888286D01*
X102808286Y-114726566D01*
X102942717Y-114541538D01*
X103046548Y-114337758D01*
X103117222Y-114120245D01*
X103153000Y-113894354D01*
X103153000Y-113665646D01*
X103117222Y-113439755D01*
X103117221Y-113439751D01*
X103117221Y-113439750D01*
X103046549Y-113222244D01*
X102942716Y-113018461D01*
X102936569Y-113010000D01*
X102808286Y-112833434D01*
X102646566Y-112671714D01*
X102562059Y-112610316D01*
X102519396Y-112554988D01*
X102513417Y-112485375D01*
X102546023Y-112423580D01*
X102562056Y-112409685D01*
X102646566Y-112348286D01*
X102808286Y-112186566D01*
X102942717Y-112001538D01*
X103046548Y-111797758D01*
X103117222Y-111580245D01*
X103153000Y-111354354D01*
X103153000Y-111125646D01*
X103117222Y-110899755D01*
X103117221Y-110899751D01*
X103117221Y-110899750D01*
X103046549Y-110682244D01*
X102942716Y-110478461D01*
X102808286Y-110293434D01*
X102646566Y-110131714D01*
X102562059Y-110070316D01*
X102519396Y-110014988D01*
X102513417Y-109945375D01*
X102546023Y-109883580D01*
X102562056Y-109869685D01*
X102646566Y-109808286D01*
X102808286Y-109646566D01*
X102942717Y-109461538D01*
X103046548Y-109257758D01*
X103117222Y-109040245D01*
X103153000Y-108814354D01*
X103153000Y-108585646D01*
X103117222Y-108359755D01*
X103117221Y-108359751D01*
X103117221Y-108359750D01*
X103046549Y-108142244D01*
X102942716Y-107938461D01*
X102808286Y-107753434D01*
X102646566Y-107591714D01*
X102562059Y-107530316D01*
X102519396Y-107474988D01*
X102513417Y-107405375D01*
X102546023Y-107343580D01*
X102562056Y-107329685D01*
X102646566Y-107268286D01*
X102808286Y-107106566D01*
X102942717Y-106921538D01*
X103046548Y-106717758D01*
X103117222Y-106500245D01*
X103153000Y-106274354D01*
X103153000Y-106045646D01*
X103117222Y-105819755D01*
X103117221Y-105819751D01*
X103117221Y-105819750D01*
X103046549Y-105602244D01*
X102942716Y-105398461D01*
X102808286Y-105213434D01*
X102646566Y-105051714D01*
X102562059Y-104990316D01*
X102519396Y-104934988D01*
X102513417Y-104865375D01*
X102546023Y-104803580D01*
X102562056Y-104789685D01*
X102646566Y-104728286D01*
X102808286Y-104566566D01*
X102942717Y-104381538D01*
X103046548Y-104177758D01*
X103117222Y-103960245D01*
X103153000Y-103734354D01*
X103153000Y-103505646D01*
X103117222Y-103279755D01*
X103117221Y-103279751D01*
X103117221Y-103279750D01*
X103046549Y-103062244D01*
X102942716Y-102858461D01*
X102808286Y-102673434D01*
X102646566Y-102511714D01*
X102562059Y-102450316D01*
X102519396Y-102394988D01*
X102513417Y-102325375D01*
X102546023Y-102263580D01*
X102562056Y-102249685D01*
X102646566Y-102188286D01*
X102808286Y-102026566D01*
X102942717Y-101841538D01*
X103046548Y-101637758D01*
X103117222Y-101420245D01*
X103153000Y-101194354D01*
X103153000Y-100965646D01*
X103117222Y-100739755D01*
X103117221Y-100739751D01*
X103117221Y-100739750D01*
X103046549Y-100522244D01*
X102942716Y-100318461D01*
X102808286Y-100133434D01*
X102646566Y-99971714D01*
X102562059Y-99910316D01*
X102519396Y-99854988D01*
X102513417Y-99785375D01*
X102546023Y-99723580D01*
X102562056Y-99709685D01*
X102646566Y-99648286D01*
X102808286Y-99486566D01*
X102942717Y-99301538D01*
X103046548Y-99097758D01*
X103117222Y-98880245D01*
X103153000Y-98654354D01*
X103153000Y-98425646D01*
X103117222Y-98199755D01*
X103117221Y-98199751D01*
X103117221Y-98199750D01*
X103046549Y-97982244D01*
X102942716Y-97778461D01*
X102808286Y-97593434D01*
X102646566Y-97431714D01*
X102646564Y-97431712D01*
X102646565Y-97431712D01*
X102644653Y-97430324D01*
X102644100Y-97429607D01*
X102642853Y-97428542D01*
X102643076Y-97428280D01*
X102601982Y-97374997D01*
X102595998Y-97305385D01*
X102628599Y-97243587D01*
X102644653Y-97229676D01*
X102645081Y-97229364D01*
X102646566Y-97228286D01*
X102808286Y-97066566D01*
X102942717Y-96881538D01*
X103046548Y-96677758D01*
X103117222Y-96460245D01*
X103153000Y-96234354D01*
X103153000Y-96005646D01*
X103117222Y-95779755D01*
X103117221Y-95779751D01*
X103117221Y-95779750D01*
X103046549Y-95562244D01*
X102942716Y-95358461D01*
X102808286Y-95173434D01*
X102646566Y-95011714D01*
X102562059Y-94950316D01*
X102519396Y-94894988D01*
X102513417Y-94825375D01*
X102546023Y-94763580D01*
X102562056Y-94749685D01*
X102646566Y-94688286D01*
X102808286Y-94526566D01*
X102942717Y-94341538D01*
X103046548Y-94137758D01*
X103117222Y-93920245D01*
X103153000Y-93694354D01*
X103153000Y-93465646D01*
X103117222Y-93239755D01*
X103117221Y-93239751D01*
X103117221Y-93239750D01*
X103046549Y-93022244D01*
X102942716Y-92818461D01*
X102808286Y-92633434D01*
X102646566Y-92471714D01*
X102562059Y-92410316D01*
X102519396Y-92354988D01*
X102513417Y-92285375D01*
X102546023Y-92223580D01*
X102562056Y-92209685D01*
X102646566Y-92148286D01*
X102808286Y-91986566D01*
X102942717Y-91801538D01*
X103046548Y-91597758D01*
X103117222Y-91380245D01*
X103153000Y-91154354D01*
X103153000Y-90925646D01*
X103117222Y-90699755D01*
X103117221Y-90699751D01*
X103117221Y-90699750D01*
X103046549Y-90482244D01*
X102942716Y-90278461D01*
X102808286Y-90093434D01*
X102646566Y-89931714D01*
X102562059Y-89870316D01*
X102519396Y-89814988D01*
X102513417Y-89745375D01*
X102546023Y-89683580D01*
X102562056Y-89669685D01*
X102646566Y-89608286D01*
X102808286Y-89446566D01*
X102942717Y-89261538D01*
X103046548Y-89057758D01*
X103117222Y-88840245D01*
X103153000Y-88614354D01*
X103153000Y-88385646D01*
X103117222Y-88159755D01*
X103117221Y-88159751D01*
X103117221Y-88159750D01*
X103046549Y-87942244D01*
X102942716Y-87738461D01*
X102808286Y-87553434D01*
X102646566Y-87391714D01*
X102562059Y-87330316D01*
X102519396Y-87274988D01*
X102513417Y-87205375D01*
X102546023Y-87143580D01*
X102562056Y-87129685D01*
X102646566Y-87068286D01*
X102808286Y-86906566D01*
X102942717Y-86721538D01*
X103046548Y-86517758D01*
X103117222Y-86300245D01*
X103153000Y-86074354D01*
X103153000Y-85845646D01*
X103117222Y-85619755D01*
X103117221Y-85619751D01*
X103117221Y-85619750D01*
X103046549Y-85402244D01*
X102942716Y-85198461D01*
X102808286Y-85013434D01*
X102646566Y-84851714D01*
X102562059Y-84790316D01*
X102519396Y-84734988D01*
X102513417Y-84665375D01*
X102546023Y-84603580D01*
X102562056Y-84589685D01*
X102646566Y-84528286D01*
X102808286Y-84366566D01*
X102942717Y-84181538D01*
X103046548Y-83977758D01*
X103117222Y-83760245D01*
X103153000Y-83534354D01*
X103153000Y-83305646D01*
X103117222Y-83079755D01*
X103117221Y-83079751D01*
X103117221Y-83079750D01*
X103046549Y-82862244D01*
X102942716Y-82658461D01*
X102808286Y-82473434D01*
X102646566Y-82311714D01*
X102562059Y-82250316D01*
X102519396Y-82194988D01*
X102513417Y-82125375D01*
X102546023Y-82063580D01*
X102562056Y-82049685D01*
X102646566Y-81988286D01*
X102808286Y-81826566D01*
X102942717Y-81641538D01*
X103046548Y-81437758D01*
X103117222Y-81220245D01*
X103153000Y-80994354D01*
X103153000Y-80765646D01*
X103117222Y-80539755D01*
X103117221Y-80539751D01*
X103117221Y-80539750D01*
X103046549Y-80322244D01*
X102942716Y-80118461D01*
X102808286Y-79933434D01*
X102646566Y-79771714D01*
X102479051Y-79650007D01*
X102436387Y-79594678D01*
X102430408Y-79525064D01*
X102463014Y-79463270D01*
X102479052Y-79449372D01*
X102535098Y-79408650D01*
X101911059Y-78784612D01*
X101931591Y-78779111D01*
X102068408Y-78700119D01*
X102180119Y-78588408D01*
X102259111Y-78451591D01*
X102264612Y-78431060D01*
X102888651Y-79055099D01*
X102888651Y-79055098D01*
X102942288Y-78981276D01*
X103046082Y-78777568D01*
X103116734Y-78560125D01*
X103116734Y-78560124D01*
X103152500Y-78334313D01*
X103152500Y-78105686D01*
X103152494Y-78105646D01*
X125647000Y-78105646D01*
X125647000Y-78334353D01*
X125682778Y-78560246D01*
X125682778Y-78560249D01*
X125753450Y-78777755D01*
X125753452Y-78777758D01*
X125857283Y-78981538D01*
X125991714Y-79166566D01*
X126153434Y-79328286D01*
X126222923Y-79378773D01*
X126237938Y-79389682D01*
X126280603Y-79445013D01*
X126286582Y-79514626D01*
X126253976Y-79576421D01*
X126237938Y-79590318D01*
X126153432Y-79651715D01*
X125991716Y-79813431D01*
X125991716Y-79813432D01*
X125991714Y-79813434D01*
X125972744Y-79839544D01*
X125857283Y-79998461D01*
X125753450Y-80202244D01*
X125682778Y-80419750D01*
X125682778Y-80419753D01*
X125647000Y-80645646D01*
X125647000Y-80874353D01*
X125682778Y-81100246D01*
X125682778Y-81100249D01*
X125753450Y-81317755D01*
X125753452Y-81317758D01*
X125857283Y-81521538D01*
X125991714Y-81706566D01*
X126153434Y-81868286D01*
X126222923Y-81918773D01*
X126237938Y-81929682D01*
X126280603Y-81985013D01*
X126286582Y-82054626D01*
X126253976Y-82116421D01*
X126237938Y-82130318D01*
X126153432Y-82191715D01*
X125991716Y-82353431D01*
X125991716Y-82353432D01*
X125991714Y-82353434D01*
X125972660Y-82379660D01*
X125857283Y-82538461D01*
X125753450Y-82742244D01*
X125682778Y-82959750D01*
X125682778Y-82959753D01*
X125678789Y-82984938D01*
X125647000Y-83185646D01*
X125647000Y-83414354D01*
X125664889Y-83527299D01*
X125682778Y-83640246D01*
X125682778Y-83640249D01*
X125753450Y-83857755D01*
X125753452Y-83857758D01*
X125857283Y-84061538D01*
X125991714Y-84246566D01*
X126153434Y-84408286D01*
X126222923Y-84458773D01*
X126237938Y-84469682D01*
X126280603Y-84525013D01*
X126286582Y-84594626D01*
X126253976Y-84656421D01*
X126237938Y-84670318D01*
X126153432Y-84731715D01*
X125991716Y-84893431D01*
X125991716Y-84893432D01*
X125991714Y-84893434D01*
X125972744Y-84919544D01*
X125857283Y-85078461D01*
X125753450Y-85282244D01*
X125682778Y-85499750D01*
X125682778Y-85499753D01*
X125678789Y-85524938D01*
X125647000Y-85725646D01*
X125647000Y-85954354D01*
X125664889Y-86067299D01*
X125682778Y-86180246D01*
X125682778Y-86180249D01*
X125753450Y-86397755D01*
X125753452Y-86397758D01*
X125857283Y-86601538D01*
X125991714Y-86786566D01*
X126153434Y-86948286D01*
X126222923Y-86998773D01*
X126237938Y-87009682D01*
X126280603Y-87065013D01*
X126286582Y-87134626D01*
X126253976Y-87196421D01*
X126237938Y-87210318D01*
X126153432Y-87271715D01*
X125991716Y-87433431D01*
X125991716Y-87433432D01*
X125991714Y-87433434D01*
X125933980Y-87512896D01*
X125857283Y-87618461D01*
X125753450Y-87822244D01*
X125682778Y-88039750D01*
X125682778Y-88039753D01*
X125647000Y-88265646D01*
X125647000Y-88494353D01*
X125682778Y-88720246D01*
X125682778Y-88720249D01*
X125753450Y-88937755D01*
X125753452Y-88937758D01*
X125857283Y-89141538D01*
X125991714Y-89326566D01*
X126153434Y-89488286D01*
X126222923Y-89538773D01*
X126237938Y-89549682D01*
X126280603Y-89605013D01*
X126286582Y-89674626D01*
X126253976Y-89736421D01*
X126237938Y-89750318D01*
X126153432Y-89811715D01*
X125991716Y-89973431D01*
X125991716Y-89973432D01*
X125991714Y-89973434D01*
X125933980Y-90052896D01*
X125857283Y-90158461D01*
X125753450Y-90362244D01*
X125682778Y-90579750D01*
X125682778Y-90579753D01*
X125647000Y-90805646D01*
X125647000Y-91034353D01*
X125682778Y-91260246D01*
X125682778Y-91260249D01*
X125753450Y-91477755D01*
X125753452Y-91477758D01*
X125857283Y-91681538D01*
X125991714Y-91866566D01*
X126153434Y-92028286D01*
X126222923Y-92078773D01*
X126237938Y-92089682D01*
X126280603Y-92145013D01*
X126286582Y-92214626D01*
X126253976Y-92276421D01*
X126237938Y-92290318D01*
X126153432Y-92351715D01*
X125991716Y-92513431D01*
X125991716Y-92513432D01*
X125991714Y-92513434D01*
X125933980Y-92592896D01*
X125857283Y-92698461D01*
X125753450Y-92902244D01*
X125682778Y-93119750D01*
X125682778Y-93119753D01*
X125647000Y-93345646D01*
X125647000Y-93574353D01*
X125682778Y-93800246D01*
X125682778Y-93800249D01*
X125753450Y-94017755D01*
X125753452Y-94017758D01*
X125857283Y-94221538D01*
X125991714Y-94406566D01*
X126153434Y-94568286D01*
X126222923Y-94618773D01*
X126237938Y-94629682D01*
X126280603Y-94685013D01*
X126286582Y-94754626D01*
X126253976Y-94816421D01*
X126237938Y-94830318D01*
X126153432Y-94891715D01*
X125991716Y-95053431D01*
X125991716Y-95053432D01*
X125991714Y-95053434D01*
X125933980Y-95132896D01*
X125857283Y-95238461D01*
X125753450Y-95442244D01*
X125682778Y-95659750D01*
X125682778Y-95659753D01*
X125647000Y-95885646D01*
X125647000Y-96114353D01*
X125682778Y-96340246D01*
X125682778Y-96340249D01*
X125753450Y-96557755D01*
X125753452Y-96557758D01*
X125857283Y-96761538D01*
X125991714Y-96946566D01*
X126153434Y-97108286D01*
X126222923Y-97158773D01*
X126237938Y-97169682D01*
X126280603Y-97225013D01*
X126286582Y-97294626D01*
X126253976Y-97356421D01*
X126237938Y-97370318D01*
X126153432Y-97431715D01*
X125991716Y-97593431D01*
X125991716Y-97593432D01*
X125991714Y-97593434D01*
X125933980Y-97672896D01*
X125857283Y-97778461D01*
X125753450Y-97982244D01*
X125682778Y-98199750D01*
X125682778Y-98199753D01*
X125647000Y-98425646D01*
X125647000Y-98654353D01*
X125682778Y-98880246D01*
X125682778Y-98880249D01*
X125753450Y-99097755D01*
X125753452Y-99097758D01*
X125857283Y-99301538D01*
X125991714Y-99486566D01*
X126153434Y-99648286D01*
X126222923Y-99698773D01*
X126237938Y-99709682D01*
X126280603Y-99765013D01*
X126286582Y-99834626D01*
X126253976Y-99896421D01*
X126237938Y-99910318D01*
X126153432Y-99971715D01*
X125991716Y-100133431D01*
X125991716Y-100133432D01*
X125991714Y-100133434D01*
X125933980Y-100212896D01*
X125857283Y-100318461D01*
X125753450Y-100522244D01*
X125682778Y-100739750D01*
X125682778Y-100739753D01*
X125647000Y-100965646D01*
X125647000Y-101194353D01*
X125682778Y-101420246D01*
X125682778Y-101420249D01*
X125753450Y-101637755D01*
X125753452Y-101637758D01*
X125857283Y-101841538D01*
X125991714Y-102026566D01*
X126153434Y-102188286D01*
X126222923Y-102238773D01*
X126237938Y-102249682D01*
X126280603Y-102305013D01*
X126286582Y-102374626D01*
X126253976Y-102436421D01*
X126237938Y-102450318D01*
X126153432Y-102511715D01*
X125991716Y-102673431D01*
X125991716Y-102673432D01*
X125991714Y-102673434D01*
X125933980Y-102752896D01*
X125857283Y-102858461D01*
X125753450Y-103062244D01*
X125682778Y-103279750D01*
X125682778Y-103279753D01*
X125647000Y-103505646D01*
X125647000Y-103734353D01*
X125682778Y-103960246D01*
X125682778Y-103960249D01*
X125753450Y-104177755D01*
X125753452Y-104177758D01*
X125857283Y-104381538D01*
X125991714Y-104566566D01*
X126153434Y-104728286D01*
X126222923Y-104778773D01*
X126237938Y-104789682D01*
X126280603Y-104845013D01*
X126286582Y-104914626D01*
X126253976Y-104976421D01*
X126237938Y-104990318D01*
X126153432Y-105051715D01*
X125991716Y-105213431D01*
X125991716Y-105213432D01*
X125991714Y-105213434D01*
X125933980Y-105292896D01*
X125857283Y-105398461D01*
X125753450Y-105602244D01*
X125682778Y-105819750D01*
X125682778Y-105819753D01*
X125647000Y-106045646D01*
X125647000Y-106274353D01*
X125682778Y-106500246D01*
X125682778Y-106500249D01*
X125753450Y-106717755D01*
X125753452Y-106717758D01*
X125857283Y-106921538D01*
X125991714Y-107106566D01*
X126153434Y-107268286D01*
X126222923Y-107318773D01*
X126237938Y-107329682D01*
X126280603Y-107385013D01*
X126286582Y-107454626D01*
X126253976Y-107516421D01*
X126237938Y-107530318D01*
X126153432Y-107591715D01*
X125991716Y-107753431D01*
X125991716Y-107753432D01*
X125991714Y-107753434D01*
X125933980Y-107832896D01*
X125857283Y-107938461D01*
X125753450Y-108142244D01*
X125682778Y-108359750D01*
X125682778Y-108359753D01*
X125647000Y-108585646D01*
X125647000Y-108814353D01*
X125682778Y-109040246D01*
X125682778Y-109040249D01*
X125753450Y-109257755D01*
X125753452Y-109257758D01*
X125857283Y-109461538D01*
X125991714Y-109646566D01*
X126153434Y-109808286D01*
X126222923Y-109858773D01*
X126237938Y-109869682D01*
X126280603Y-109925013D01*
X126286582Y-109994626D01*
X126253976Y-110056421D01*
X126237938Y-110070318D01*
X126153432Y-110131715D01*
X125991716Y-110293431D01*
X125991716Y-110293432D01*
X125991714Y-110293434D01*
X125933980Y-110372896D01*
X125857283Y-110478461D01*
X125753450Y-110682244D01*
X125682778Y-110899750D01*
X125682778Y-110899753D01*
X125647000Y-111125646D01*
X125647000Y-111354353D01*
X125682778Y-111580246D01*
X125682778Y-111580249D01*
X125753450Y-111797755D01*
X125753452Y-111797758D01*
X125857283Y-112001538D01*
X125991714Y-112186566D01*
X126153434Y-112348286D01*
X126222923Y-112398773D01*
X126237938Y-112409682D01*
X126280603Y-112465013D01*
X126286582Y-112534626D01*
X126253976Y-112596421D01*
X126237938Y-112610318D01*
X126153432Y-112671715D01*
X125991716Y-112833431D01*
X125991716Y-112833432D01*
X125991714Y-112833434D01*
X125933980Y-112912896D01*
X125857283Y-113018461D01*
X125753450Y-113222244D01*
X125682778Y-113439750D01*
X125682778Y-113439753D01*
X125647000Y-113665646D01*
X125647000Y-113894353D01*
X125682778Y-114120246D01*
X125682778Y-114120249D01*
X125753450Y-114337755D01*
X125775489Y-114381009D01*
X125857283Y-114541538D01*
X125991714Y-114726566D01*
X126153434Y-114888286D01*
X126338462Y-115022717D01*
X126439419Y-115074157D01*
X126542244Y-115126549D01*
X126759751Y-115197221D01*
X126759752Y-115197221D01*
X126759755Y-115197222D01*
X126985646Y-115233000D01*
X126985647Y-115233000D01*
X127214353Y-115233000D01*
X127214354Y-115233000D01*
X127440245Y-115197222D01*
X127440248Y-115197221D01*
X127440249Y-115197221D01*
X127657755Y-115126549D01*
X127657755Y-115126548D01*
X127657758Y-115126548D01*
X127861538Y-115022717D01*
X128046566Y-114888286D01*
X128089015Y-114845837D01*
X144049500Y-114845837D01*
X144049500Y-115074162D01*
X144085215Y-115299660D01*
X144155770Y-115516803D01*
X144259421Y-115720228D01*
X144393621Y-115904937D01*
X144555063Y-116066379D01*
X144555069Y-116066383D01*
X144642191Y-116129683D01*
X144684857Y-116185013D01*
X144690835Y-116254627D01*
X144658228Y-116316421D01*
X144642191Y-116330317D01*
X144555069Y-116393616D01*
X144555060Y-116393623D01*
X144393622Y-116555061D01*
X144259421Y-116739771D01*
X144155770Y-116943196D01*
X144085215Y-117160339D01*
X144049500Y-117385837D01*
X144049500Y-117614162D01*
X144085215Y-117839660D01*
X144155770Y-118056803D01*
X144259421Y-118260228D01*
X144393621Y-118444937D01*
X144555063Y-118606379D01*
X144642616Y-118669990D01*
X144685280Y-118725319D01*
X144691259Y-118794933D01*
X144667766Y-118839456D01*
X144666689Y-118853136D01*
X145288941Y-119475387D01*
X145268409Y-119480889D01*
X145131592Y-119559881D01*
X145019881Y-119671592D01*
X144940889Y-119808409D01*
X144935387Y-119828940D01*
X144313136Y-119206689D01*
X144313135Y-119206689D01*
X144259849Y-119280033D01*
X144259848Y-119280035D01*
X144156230Y-119483395D01*
X144085704Y-119700455D01*
X144050000Y-119925883D01*
X144050000Y-120154116D01*
X144085704Y-120379544D01*
X144156230Y-120596604D01*
X144259851Y-120799969D01*
X144313135Y-120873309D01*
X144313137Y-120873309D01*
X144935387Y-120251059D01*
X144940889Y-120271591D01*
X145019881Y-120408408D01*
X145131592Y-120520119D01*
X145268409Y-120599111D01*
X145288939Y-120604612D01*
X144666688Y-121226862D01*
X144666689Y-121226863D01*
X144740030Y-121280148D01*
X144943395Y-121383769D01*
X145160455Y-121454295D01*
X145385884Y-121490000D01*
X145614116Y-121490000D01*
X145839544Y-121454295D01*
X146056604Y-121383769D01*
X146259966Y-121280150D01*
X146333309Y-121226862D01*
X146333310Y-121226862D01*
X145711059Y-120604612D01*
X145731591Y-120599111D01*
X145868408Y-120520119D01*
X145980119Y-120408408D01*
X146059111Y-120271591D01*
X146064612Y-120251060D01*
X146686862Y-120873310D01*
X146686862Y-120873309D01*
X146740150Y-120799966D01*
X146843769Y-120596604D01*
X146914295Y-120379544D01*
X146950000Y-120154116D01*
X146950000Y-119925883D01*
X146914295Y-119700455D01*
X146843769Y-119483395D01*
X146740148Y-119280030D01*
X146686863Y-119206689D01*
X146686862Y-119206688D01*
X146064612Y-119828939D01*
X146059111Y-119808409D01*
X145980119Y-119671592D01*
X145868408Y-119559881D01*
X145731591Y-119480889D01*
X145711058Y-119475387D01*
X146333309Y-118853137D01*
X146332105Y-118837845D01*
X146314717Y-118815295D01*
X146308739Y-118745681D01*
X146341346Y-118683887D01*
X146357380Y-118669992D01*
X146444937Y-118606379D01*
X146606379Y-118444937D01*
X146740579Y-118260228D01*
X146844231Y-118056799D01*
X146914784Y-117839660D01*
X146927365Y-117760228D01*
X146950500Y-117614162D01*
X146950500Y-117385837D01*
X146914784Y-117160339D01*
X146844229Y-116943196D01*
X146740578Y-116739771D01*
X146606379Y-116555063D01*
X146444937Y-116393621D01*
X146357807Y-116330317D01*
X146315143Y-116274988D01*
X146309164Y-116205374D01*
X146341770Y-116143579D01*
X146357807Y-116129683D01*
X146444937Y-116066379D01*
X146606379Y-115904937D01*
X146740579Y-115720228D01*
X146844231Y-115516799D01*
X146914784Y-115299660D01*
X146927406Y-115219969D01*
X146950500Y-115074162D01*
X146950500Y-114845837D01*
X146914784Y-114620339D01*
X146882049Y-114519592D01*
X146844231Y-114403201D01*
X146844229Y-114403198D01*
X146844229Y-114403196D01*
X146740578Y-114199771D01*
X146682951Y-114120455D01*
X146606379Y-114015063D01*
X146444937Y-113853621D01*
X146260228Y-113719421D01*
X146222171Y-113700030D01*
X146056803Y-113615770D01*
X145839660Y-113545215D01*
X145614162Y-113509500D01*
X145614157Y-113509500D01*
X145385843Y-113509500D01*
X145385838Y-113509500D01*
X145160339Y-113545215D01*
X144943196Y-113615770D01*
X144739771Y-113719421D01*
X144555061Y-113853622D01*
X144393622Y-114015061D01*
X144259421Y-114199771D01*
X144155770Y-114403196D01*
X144085215Y-114620339D01*
X144049500Y-114845837D01*
X128089015Y-114845837D01*
X128208286Y-114726566D01*
X128342717Y-114541538D01*
X128446548Y-114337758D01*
X128517222Y-114120245D01*
X128553000Y-113894354D01*
X128553000Y-113665646D01*
X128517222Y-113439755D01*
X128517221Y-113439752D01*
X128516721Y-113437668D01*
X128516761Y-113436849D01*
X128516460Y-113434943D01*
X128516860Y-113434879D01*
X128520212Y-113367886D01*
X128549612Y-113321043D01*
X140544114Y-101326543D01*
X140620775Y-101211811D01*
X140628007Y-101194353D01*
X140673578Y-101084332D01*
X140673580Y-101084328D01*
X140700500Y-100948994D01*
X140700500Y-100811006D01*
X140700500Y-94225316D01*
X140709939Y-94177864D01*
X140769735Y-94033501D01*
X140769737Y-94033497D01*
X140800500Y-93878842D01*
X140800500Y-93721158D01*
X140800500Y-93721155D01*
X140800499Y-93721153D01*
X140795168Y-93694353D01*
X140769737Y-93566503D01*
X140727961Y-93465646D01*
X140709397Y-93420827D01*
X140709390Y-93420814D01*
X140621789Y-93289711D01*
X140621786Y-93289707D01*
X140510292Y-93178213D01*
X140510288Y-93178210D01*
X140379185Y-93090609D01*
X140379172Y-93090602D01*
X140233501Y-93030264D01*
X140233489Y-93030261D01*
X140078845Y-92999500D01*
X140078842Y-92999500D01*
X139921158Y-92999500D01*
X139921155Y-92999500D01*
X139766510Y-93030261D01*
X139766498Y-93030264D01*
X139620827Y-93090602D01*
X139620814Y-93090609D01*
X139489711Y-93178210D01*
X139489707Y-93178213D01*
X139378213Y-93289707D01*
X139378210Y-93289711D01*
X139290609Y-93420814D01*
X139290602Y-93420827D01*
X139230264Y-93566498D01*
X139230261Y-93566510D01*
X139199500Y-93721153D01*
X139199500Y-93878846D01*
X139230261Y-94033489D01*
X139230264Y-94033501D01*
X139290061Y-94177864D01*
X139299500Y-94225316D01*
X139299500Y-100538481D01*
X139279815Y-100605520D01*
X139263181Y-100626162D01*
X128753891Y-111135451D01*
X128692568Y-111168936D01*
X128622876Y-111163952D01*
X128566943Y-111122080D01*
X128543738Y-111067169D01*
X128517222Y-110899755D01*
X128517221Y-110899750D01*
X128446549Y-110682244D01*
X128342716Y-110478461D01*
X128208286Y-110293434D01*
X128046566Y-110131714D01*
X127962059Y-110070316D01*
X127919396Y-110014988D01*
X127913417Y-109945375D01*
X127946023Y-109883580D01*
X127962056Y-109869685D01*
X128046566Y-109808286D01*
X128208286Y-109646566D01*
X128342717Y-109461538D01*
X128446548Y-109257758D01*
X128517222Y-109040245D01*
X128553000Y-108814354D01*
X128553000Y-108585646D01*
X128517222Y-108359755D01*
X128517221Y-108359751D01*
X128517221Y-108359750D01*
X128446549Y-108142244D01*
X128342716Y-107938461D01*
X128208286Y-107753434D01*
X128046566Y-107591714D01*
X127962059Y-107530316D01*
X127919396Y-107474988D01*
X127913417Y-107405375D01*
X127946023Y-107343580D01*
X127962056Y-107329685D01*
X128046566Y-107268286D01*
X128208286Y-107106566D01*
X128342717Y-106921538D01*
X128446548Y-106717758D01*
X128517222Y-106500245D01*
X128553000Y-106274354D01*
X128553000Y-106045646D01*
X128517222Y-105819755D01*
X128517221Y-105819751D01*
X128517221Y-105819750D01*
X128446549Y-105602244D01*
X128342716Y-105398461D01*
X128208286Y-105213434D01*
X128046566Y-105051714D01*
X127962059Y-104990316D01*
X127919396Y-104934988D01*
X127913417Y-104865375D01*
X127946023Y-104803580D01*
X127962056Y-104789685D01*
X128046566Y-104728286D01*
X128208286Y-104566566D01*
X128342717Y-104381538D01*
X128446548Y-104177758D01*
X128517222Y-103960245D01*
X128553000Y-103734354D01*
X128553000Y-103505646D01*
X128517222Y-103279755D01*
X128517221Y-103279751D01*
X128517221Y-103279750D01*
X128446549Y-103062244D01*
X128342716Y-102858461D01*
X128208286Y-102673434D01*
X128046566Y-102511714D01*
X127962059Y-102450316D01*
X127919396Y-102394988D01*
X127913417Y-102325375D01*
X127946023Y-102263580D01*
X127962056Y-102249685D01*
X128046566Y-102188286D01*
X128208286Y-102026566D01*
X128342717Y-101841538D01*
X128446548Y-101637758D01*
X128517222Y-101420245D01*
X128553000Y-101194354D01*
X128553000Y-100965646D01*
X128517222Y-100739755D01*
X128517221Y-100739751D01*
X128517221Y-100739750D01*
X128446549Y-100522244D01*
X128342716Y-100318461D01*
X128208286Y-100133434D01*
X128046566Y-99971714D01*
X127962059Y-99910316D01*
X127919396Y-99854988D01*
X127913417Y-99785375D01*
X127946023Y-99723580D01*
X127962056Y-99709685D01*
X128046566Y-99648286D01*
X128208286Y-99486566D01*
X128342717Y-99301538D01*
X128446548Y-99097758D01*
X128517222Y-98880245D01*
X128553000Y-98654354D01*
X128553000Y-98425646D01*
X128517222Y-98199755D01*
X128517221Y-98199751D01*
X128517221Y-98199750D01*
X128446549Y-97982244D01*
X128342716Y-97778461D01*
X128208286Y-97593434D01*
X128046566Y-97431714D01*
X127962059Y-97370316D01*
X127919396Y-97314988D01*
X127913417Y-97245375D01*
X127946023Y-97183580D01*
X127962056Y-97169685D01*
X128046566Y-97108286D01*
X128208286Y-96946566D01*
X128342717Y-96761538D01*
X128446548Y-96557758D01*
X128446549Y-96557755D01*
X128517221Y-96340249D01*
X128517221Y-96340248D01*
X128517222Y-96340245D01*
X128553000Y-96114354D01*
X128553000Y-95885646D01*
X128517222Y-95659755D01*
X128517221Y-95659751D01*
X128517221Y-95659750D01*
X128446549Y-95442244D01*
X128342716Y-95238461D01*
X128295471Y-95173434D01*
X128208286Y-95053434D01*
X128046566Y-94891714D01*
X127962059Y-94830316D01*
X127919396Y-94774988D01*
X127913417Y-94705375D01*
X127946023Y-94643580D01*
X127962056Y-94629685D01*
X128046566Y-94568286D01*
X128208286Y-94406566D01*
X128342717Y-94221538D01*
X128446548Y-94017758D01*
X128446549Y-94017755D01*
X128517221Y-93800249D01*
X128517221Y-93800248D01*
X128517222Y-93800245D01*
X128553000Y-93574354D01*
X128553000Y-93345646D01*
X128517222Y-93119755D01*
X128517221Y-93119751D01*
X128517221Y-93119750D01*
X128446549Y-92902244D01*
X128342716Y-92698461D01*
X128295471Y-92633434D01*
X128208286Y-92513434D01*
X128046566Y-92351714D01*
X127962059Y-92290316D01*
X127919396Y-92234988D01*
X127913417Y-92165375D01*
X127946023Y-92103580D01*
X127962056Y-92089685D01*
X128046566Y-92028286D01*
X128208286Y-91866566D01*
X128342717Y-91681538D01*
X128446548Y-91477758D01*
X128446549Y-91477755D01*
X128517221Y-91260249D01*
X128517221Y-91260248D01*
X128517222Y-91260245D01*
X128553000Y-91034354D01*
X128553000Y-90805646D01*
X128517222Y-90579755D01*
X128517221Y-90579751D01*
X128517221Y-90579750D01*
X128446549Y-90362244D01*
X128342716Y-90158461D01*
X128295471Y-90093434D01*
X128208286Y-89973434D01*
X128046566Y-89811714D01*
X127962059Y-89750316D01*
X127919396Y-89694988D01*
X127913417Y-89625375D01*
X127946023Y-89563580D01*
X127962056Y-89549685D01*
X128046566Y-89488286D01*
X128208286Y-89326566D01*
X128342717Y-89141538D01*
X128446548Y-88937758D01*
X128446549Y-88937755D01*
X128517221Y-88720249D01*
X128517221Y-88720248D01*
X128517222Y-88720245D01*
X128553000Y-88494354D01*
X128553000Y-88265646D01*
X128517222Y-88039755D01*
X128517221Y-88039751D01*
X128517221Y-88039750D01*
X128446549Y-87822244D01*
X128342716Y-87618461D01*
X128295471Y-87553434D01*
X128208286Y-87433434D01*
X128046566Y-87271714D01*
X127962059Y-87210316D01*
X127919396Y-87154988D01*
X127913417Y-87085375D01*
X127946023Y-87023580D01*
X127962056Y-87009685D01*
X128046566Y-86948286D01*
X128208286Y-86786566D01*
X128342717Y-86601538D01*
X128446548Y-86397758D01*
X128446549Y-86397755D01*
X128517221Y-86180249D01*
X128517221Y-86180248D01*
X128517222Y-86180245D01*
X128553000Y-85954354D01*
X128553000Y-85725646D01*
X128517222Y-85499755D01*
X128517221Y-85499751D01*
X128517221Y-85499750D01*
X128446549Y-85282244D01*
X128372441Y-85136799D01*
X128342717Y-85078462D01*
X128208286Y-84893434D01*
X128046566Y-84731714D01*
X127962059Y-84670316D01*
X127946839Y-84650578D01*
X127928533Y-84633657D01*
X127925872Y-84623386D01*
X127919396Y-84614988D01*
X127917262Y-84590153D01*
X127911011Y-84566020D01*
X127914324Y-84555943D01*
X127913417Y-84545375D01*
X127925049Y-84523329D01*
X127932837Y-84499647D01*
X127943095Y-84489128D01*
X127946023Y-84483580D01*
X127956794Y-84473729D01*
X127959370Y-84471637D01*
X128046566Y-84408286D01*
X128208286Y-84246566D01*
X128342717Y-84061538D01*
X128446548Y-83857758D01*
X128458891Y-83819771D01*
X128517221Y-83640249D01*
X128517221Y-83640248D01*
X128517222Y-83640245D01*
X128553000Y-83414354D01*
X128553000Y-83185646D01*
X128517222Y-82959755D01*
X128517221Y-82959751D01*
X128517221Y-82959750D01*
X128446549Y-82742244D01*
X128342716Y-82538461D01*
X128295471Y-82473434D01*
X128208286Y-82353434D01*
X128046566Y-82191714D01*
X127962059Y-82130316D01*
X127919396Y-82074988D01*
X127913417Y-82005375D01*
X127946023Y-81943580D01*
X127962056Y-81929685D01*
X128046566Y-81868286D01*
X128208286Y-81706566D01*
X128342717Y-81521538D01*
X128446548Y-81317758D01*
X128458891Y-81279771D01*
X128517221Y-81100249D01*
X128517221Y-81100248D01*
X128517222Y-81100245D01*
X128553000Y-80874354D01*
X128553000Y-80645646D01*
X128517222Y-80419755D01*
X128517221Y-80419751D01*
X128517221Y-80419750D01*
X128446549Y-80202244D01*
X128372441Y-80056799D01*
X128342717Y-79998462D01*
X128208286Y-79813434D01*
X128046566Y-79651714D01*
X127962059Y-79590316D01*
X127946839Y-79570577D01*
X127928536Y-79553660D01*
X127925875Y-79543390D01*
X127919396Y-79534988D01*
X127917262Y-79510152D01*
X127911011Y-79486024D01*
X127914324Y-79475945D01*
X127913417Y-79465375D01*
X127925048Y-79443330D01*
X127932835Y-79419650D01*
X127943094Y-79409129D01*
X127946023Y-79403580D01*
X127956791Y-79393732D01*
X127959375Y-79391633D01*
X127967353Y-79385837D01*
X144049500Y-79385837D01*
X144049500Y-79614162D01*
X144085215Y-79839660D01*
X144155770Y-80056803D01*
X144259288Y-80259966D01*
X144259421Y-80260228D01*
X144393621Y-80444937D01*
X144555063Y-80606379D01*
X144555069Y-80606383D01*
X144642191Y-80669683D01*
X144684857Y-80725013D01*
X144690835Y-80794627D01*
X144658228Y-80856421D01*
X144642191Y-80870317D01*
X144555069Y-80933616D01*
X144555060Y-80933623D01*
X144393622Y-81095061D01*
X144259421Y-81279771D01*
X144155770Y-81483196D01*
X144085215Y-81700339D01*
X144049500Y-81925837D01*
X144049500Y-82154162D01*
X144085215Y-82379660D01*
X144155770Y-82596803D01*
X144259421Y-82800228D01*
X144393621Y-82984937D01*
X144555063Y-83146379D01*
X144642616Y-83209990D01*
X144685280Y-83265319D01*
X144691259Y-83334933D01*
X144667766Y-83379456D01*
X144666689Y-83393136D01*
X145288941Y-84015387D01*
X145268409Y-84020889D01*
X145131592Y-84099881D01*
X145019881Y-84211592D01*
X144940889Y-84348409D01*
X144935387Y-84368940D01*
X144313136Y-83746689D01*
X144313135Y-83746689D01*
X144259849Y-83820033D01*
X144259848Y-83820035D01*
X144156230Y-84023395D01*
X144085704Y-84240455D01*
X144050000Y-84465883D01*
X144050000Y-84694116D01*
X144085704Y-84919544D01*
X144156230Y-85136604D01*
X144259851Y-85339969D01*
X144313135Y-85413309D01*
X144313137Y-85413309D01*
X144935387Y-84791059D01*
X144940889Y-84811591D01*
X145019881Y-84948408D01*
X145131592Y-85060119D01*
X145268409Y-85139111D01*
X145288939Y-85144612D01*
X144666688Y-85766862D01*
X144666689Y-85766863D01*
X144740030Y-85820148D01*
X144943395Y-85923769D01*
X145160455Y-85994295D01*
X145385884Y-86030000D01*
X145614116Y-86030000D01*
X145839544Y-85994295D01*
X146056604Y-85923769D01*
X146259966Y-85820150D01*
X146333309Y-85766862D01*
X146333310Y-85766862D01*
X145711059Y-85144612D01*
X145731591Y-85139111D01*
X145868408Y-85060119D01*
X145980119Y-84948408D01*
X146059111Y-84811591D01*
X146064612Y-84791060D01*
X146686862Y-85413310D01*
X146686862Y-85413309D01*
X146740150Y-85339966D01*
X146843769Y-85136604D01*
X146914295Y-84919544D01*
X146950000Y-84694116D01*
X146950000Y-84465883D01*
X146914295Y-84240455D01*
X146843769Y-84023395D01*
X146740148Y-83820030D01*
X146686863Y-83746689D01*
X146686862Y-83746688D01*
X146064612Y-84368939D01*
X146059111Y-84348409D01*
X145980119Y-84211592D01*
X145868408Y-84099881D01*
X145731591Y-84020889D01*
X145711058Y-84015387D01*
X146333309Y-83393137D01*
X146332105Y-83377845D01*
X146314717Y-83355295D01*
X146308739Y-83285681D01*
X146341346Y-83223887D01*
X146357380Y-83209992D01*
X146444937Y-83146379D01*
X146606379Y-82984937D01*
X146740579Y-82800228D01*
X146844231Y-82596799D01*
X146914784Y-82379660D01*
X146925545Y-82311716D01*
X146950500Y-82154162D01*
X146950500Y-81925837D01*
X146914784Y-81700339D01*
X146844229Y-81483196D01*
X146789550Y-81375884D01*
X146740579Y-81279772D01*
X146606379Y-81095063D01*
X146444937Y-80933621D01*
X146357807Y-80870317D01*
X146315143Y-80814988D01*
X146309164Y-80745374D01*
X146341770Y-80683579D01*
X146357807Y-80669683D01*
X146444937Y-80606379D01*
X146606379Y-80444937D01*
X146740579Y-80260228D01*
X146844231Y-80056799D01*
X146914784Y-79839660D01*
X146925546Y-79771714D01*
X146950500Y-79614162D01*
X146950500Y-79385837D01*
X146914784Y-79160339D01*
X146844229Y-78943196D01*
X146760623Y-78779111D01*
X146740579Y-78739772D01*
X146606379Y-78555063D01*
X146444937Y-78393621D01*
X146260228Y-78259421D01*
X146182862Y-78220001D01*
X146056803Y-78155770D01*
X145839660Y-78085215D01*
X145614162Y-78049500D01*
X145614157Y-78049500D01*
X145385843Y-78049500D01*
X145385838Y-78049500D01*
X145160339Y-78085215D01*
X144943196Y-78155770D01*
X144739771Y-78259421D01*
X144555061Y-78393622D01*
X144393622Y-78555061D01*
X144259421Y-78739771D01*
X144155770Y-78943196D01*
X144085215Y-79160339D01*
X144049500Y-79385837D01*
X127967353Y-79385837D01*
X128046566Y-79328286D01*
X128208286Y-79166566D01*
X128342717Y-78981538D01*
X128446548Y-78777758D01*
X128471774Y-78700119D01*
X128517221Y-78560249D01*
X128517221Y-78560248D01*
X128517222Y-78560245D01*
X128553000Y-78334354D01*
X128553000Y-78105646D01*
X128517222Y-77879755D01*
X128517221Y-77879751D01*
X128517221Y-77879750D01*
X128446549Y-77662244D01*
X128342851Y-77458725D01*
X128342717Y-77458462D01*
X128208286Y-77273434D01*
X128046566Y-77111714D01*
X127861538Y-76977283D01*
X127657755Y-76873450D01*
X127440248Y-76802778D01*
X127270826Y-76775944D01*
X127214354Y-76767000D01*
X126985646Y-76767000D01*
X126910349Y-76778926D01*
X126759753Y-76802778D01*
X126759750Y-76802778D01*
X126542244Y-76873450D01*
X126338461Y-76977283D01*
X126264051Y-77031346D01*
X126153434Y-77111714D01*
X126153432Y-77111716D01*
X126153431Y-77111716D01*
X125991716Y-77273431D01*
X125991716Y-77273432D01*
X125991714Y-77273434D01*
X125933980Y-77352896D01*
X125857283Y-77458461D01*
X125753450Y-77662244D01*
X125682778Y-77879750D01*
X125682778Y-77879753D01*
X125647000Y-78105646D01*
X103152494Y-78105646D01*
X103116734Y-77879875D01*
X103116734Y-77879874D01*
X103046082Y-77662431D01*
X102942292Y-77458731D01*
X102942288Y-77458725D01*
X102888651Y-77384900D01*
X102888651Y-77384899D01*
X102264612Y-78008939D01*
X102259111Y-77988409D01*
X102180119Y-77851592D01*
X102068408Y-77739881D01*
X101931591Y-77660889D01*
X101911058Y-77655387D01*
X102535099Y-77031347D01*
X102461276Y-76977711D01*
X102257568Y-76873917D01*
X102040124Y-76803265D01*
X101814313Y-76767500D01*
X101585687Y-76767500D01*
X101359875Y-76803265D01*
X101359874Y-76803265D01*
X101142431Y-76873917D01*
X100938719Y-76977713D01*
X100864900Y-77031346D01*
X100864899Y-77031347D01*
X101488940Y-77655387D01*
X101468409Y-77660889D01*
X101331592Y-77739881D01*
X101219881Y-77851592D01*
X101140889Y-77988409D01*
X101135387Y-78008940D01*
X100511347Y-77384899D01*
X100511346Y-77384900D01*
X100457713Y-77458719D01*
X100353917Y-77662431D01*
X100283265Y-77879874D01*
X100283265Y-77879875D01*
X100247500Y-78105686D01*
X100247500Y-78334313D01*
X100283265Y-78560124D01*
X100283265Y-78560125D01*
X100353917Y-78777568D01*
X100457711Y-78981276D01*
X100511347Y-79055098D01*
X100511347Y-79055099D01*
X101135387Y-78431059D01*
X101140889Y-78451591D01*
X101219881Y-78588408D01*
X101331592Y-78700119D01*
X101468409Y-78779111D01*
X101488939Y-78784612D01*
X100864899Y-79408651D01*
X100864900Y-79408652D01*
X100920946Y-79449372D01*
X100963612Y-79504702D01*
X100969591Y-79574315D01*
X100936985Y-79636110D01*
X100920947Y-79650008D01*
X100848207Y-79702856D01*
X100753434Y-79771714D01*
X100753432Y-79771716D01*
X100753431Y-79771716D01*
X100591716Y-79933431D01*
X100591716Y-79933432D01*
X100591714Y-79933434D01*
X100544469Y-79998461D01*
X100457283Y-80118461D01*
X100353450Y-80322244D01*
X100282778Y-80539750D01*
X100282778Y-80539753D01*
X100247000Y-80765646D01*
X86308054Y-80765646D01*
X86306723Y-80759073D01*
X86309359Y-80752302D01*
X86308738Y-80745064D01*
X86321867Y-80720180D01*
X86332076Y-80693965D01*
X86332806Y-80693254D01*
X86333310Y-80686862D01*
X85711059Y-80064612D01*
X85731591Y-80059111D01*
X85868408Y-79980119D01*
X85980119Y-79868408D01*
X86059111Y-79731591D01*
X86064612Y-79711060D01*
X86686862Y-80333310D01*
X86686862Y-80333309D01*
X86740150Y-80259966D01*
X86843769Y-80056604D01*
X86914295Y-79839544D01*
X86950000Y-79614116D01*
X86950000Y-79385883D01*
X86914295Y-79160455D01*
X86843769Y-78943395D01*
X86740148Y-78740030D01*
X86686863Y-78666689D01*
X86686862Y-78666688D01*
X86064612Y-79288939D01*
X86059111Y-79268409D01*
X85980119Y-79131592D01*
X85868408Y-79019881D01*
X85731591Y-78940889D01*
X85711058Y-78935387D01*
X86333309Y-78313137D01*
X86333309Y-78313135D01*
X86259969Y-78259851D01*
X86164682Y-78211299D01*
X86056604Y-78156230D01*
X85839544Y-78085704D01*
X85614116Y-78050000D01*
X85385884Y-78050000D01*
X85160455Y-78085704D01*
X84943395Y-78156230D01*
X84740035Y-78259848D01*
X84740033Y-78259849D01*
X84666689Y-78313135D01*
X84666689Y-78313136D01*
X85288941Y-78935387D01*
X85268409Y-78940889D01*
X85131592Y-79019881D01*
X85019881Y-79131592D01*
X84940889Y-79268409D01*
X84935387Y-79288940D01*
X84313136Y-78666689D01*
X84313135Y-78666689D01*
X84259849Y-78740033D01*
X84259848Y-78740035D01*
X84156230Y-78943395D01*
X84085704Y-79160455D01*
X84050000Y-79385883D01*
X84050000Y-79614116D01*
X84085704Y-79839544D01*
X84156230Y-80056604D01*
X84259851Y-80259969D01*
X84313135Y-80333309D01*
X84313137Y-80333309D01*
X84935387Y-79711059D01*
X84940889Y-79731591D01*
X85019881Y-79868408D01*
X85131592Y-79980119D01*
X85268409Y-80059111D01*
X85288939Y-80064612D01*
X84666688Y-80686862D01*
X84667892Y-80702152D01*
X84685281Y-80724702D01*
X84691260Y-80794315D01*
X84658655Y-80856110D01*
X84642617Y-80870008D01*
X84555063Y-80933620D01*
X84393622Y-81095061D01*
X84259421Y-81279771D01*
X84155770Y-81483196D01*
X84085215Y-81700339D01*
X84049500Y-81925837D01*
X80500500Y-81925837D01*
X80500500Y-51885646D01*
X104307000Y-51885646D01*
X104307000Y-52114353D01*
X104342778Y-52340246D01*
X104342778Y-52340249D01*
X104413450Y-52557755D01*
X104413452Y-52557758D01*
X104517283Y-52761538D01*
X104651714Y-52946566D01*
X104813434Y-53108286D01*
X104998462Y-53242717D01*
X105201327Y-53346082D01*
X105202244Y-53346549D01*
X105419751Y-53417221D01*
X105419752Y-53417221D01*
X105419755Y-53417222D01*
X105645646Y-53453000D01*
X105645647Y-53453000D01*
X105874353Y-53453000D01*
X105874354Y-53453000D01*
X106100245Y-53417222D01*
X106100248Y-53417221D01*
X106100249Y-53417221D01*
X106317755Y-53346549D01*
X106317755Y-53346548D01*
X106317758Y-53346548D01*
X106521538Y-53242717D01*
X106706566Y-53108286D01*
X106868286Y-52946566D01*
X106929991Y-52861635D01*
X106985321Y-52818970D01*
X107054934Y-52812991D01*
X107094290Y-52833756D01*
X107111347Y-52835099D01*
X107735387Y-52211059D01*
X107740889Y-52231591D01*
X107819881Y-52368408D01*
X107931592Y-52480119D01*
X108068409Y-52559111D01*
X108088939Y-52564612D01*
X107464899Y-53188651D01*
X107538725Y-53242288D01*
X107538731Y-53242292D01*
X107742431Y-53346082D01*
X107959875Y-53416734D01*
X108185687Y-53452500D01*
X108414313Y-53452500D01*
X108640124Y-53416734D01*
X108640125Y-53416734D01*
X108857568Y-53346082D01*
X109061276Y-53242288D01*
X109135098Y-53188651D01*
X108511059Y-52564612D01*
X108531591Y-52559111D01*
X108668408Y-52480119D01*
X108780119Y-52368408D01*
X108859111Y-52231591D01*
X108864612Y-52211060D01*
X109488651Y-52835099D01*
X109505503Y-52833772D01*
X109524699Y-52818970D01*
X109594312Y-52812989D01*
X109656107Y-52845594D01*
X109670007Y-52861634D01*
X109670317Y-52862061D01*
X109731714Y-52946566D01*
X109893434Y-53108286D01*
X110078462Y-53242717D01*
X110281327Y-53346082D01*
X110282244Y-53346549D01*
X110499751Y-53417221D01*
X110499752Y-53417221D01*
X110499755Y-53417222D01*
X110725646Y-53453000D01*
X110725647Y-53453000D01*
X110954353Y-53453000D01*
X110954354Y-53453000D01*
X111180245Y-53417222D01*
X111180248Y-53417221D01*
X111180249Y-53417221D01*
X111397755Y-53346549D01*
X111397755Y-53346548D01*
X111397758Y-53346548D01*
X111601538Y-53242717D01*
X111786566Y-53108286D01*
X111948286Y-52946566D01*
X112009683Y-52862059D01*
X112065012Y-52819396D01*
X112134625Y-52813417D01*
X112196420Y-52846023D01*
X112210314Y-52862056D01*
X112271714Y-52946566D01*
X112433434Y-53108286D01*
X112618462Y-53242717D01*
X112821327Y-53346082D01*
X112822244Y-53346549D01*
X113039751Y-53417221D01*
X113039752Y-53417221D01*
X113039755Y-53417222D01*
X113265646Y-53453000D01*
X113265647Y-53453000D01*
X113494353Y-53453000D01*
X113494354Y-53453000D01*
X113720245Y-53417222D01*
X113720248Y-53417221D01*
X113720249Y-53417221D01*
X113937755Y-53346549D01*
X113937755Y-53346548D01*
X113937758Y-53346548D01*
X114141538Y-53242717D01*
X114326566Y-53108286D01*
X114488286Y-52946566D01*
X114549683Y-52862059D01*
X114605012Y-52819396D01*
X114674625Y-52813417D01*
X114736420Y-52846023D01*
X114750314Y-52862056D01*
X114811714Y-52946566D01*
X114973434Y-53108286D01*
X115158462Y-53242717D01*
X115361327Y-53346082D01*
X115362244Y-53346549D01*
X115579751Y-53417221D01*
X115579752Y-53417221D01*
X115579755Y-53417222D01*
X115805646Y-53453000D01*
X115805647Y-53453000D01*
X116034353Y-53453000D01*
X116034354Y-53453000D01*
X116260245Y-53417222D01*
X116260248Y-53417221D01*
X116260249Y-53417221D01*
X116477755Y-53346549D01*
X116477755Y-53346548D01*
X116477758Y-53346548D01*
X116681538Y-53242717D01*
X116866566Y-53108286D01*
X117028286Y-52946566D01*
X117089683Y-52862059D01*
X117145012Y-52819396D01*
X117214625Y-52813417D01*
X117276420Y-52846023D01*
X117290314Y-52862056D01*
X117351714Y-52946566D01*
X117513434Y-53108286D01*
X117698462Y-53242717D01*
X117901327Y-53346082D01*
X117902244Y-53346549D01*
X118119751Y-53417221D01*
X118119752Y-53417221D01*
X118119755Y-53417222D01*
X118345646Y-53453000D01*
X118345647Y-53453000D01*
X118574353Y-53453000D01*
X118574354Y-53453000D01*
X118800245Y-53417222D01*
X118800248Y-53417221D01*
X118800249Y-53417221D01*
X119017755Y-53346549D01*
X119017755Y-53346548D01*
X119017758Y-53346548D01*
X119221538Y-53242717D01*
X119406566Y-53108286D01*
X119568286Y-52946566D01*
X119629683Y-52862059D01*
X119685012Y-52819396D01*
X119754625Y-52813417D01*
X119816420Y-52846023D01*
X119830314Y-52862056D01*
X119891714Y-52946566D01*
X120053434Y-53108286D01*
X120238462Y-53242717D01*
X120441327Y-53346082D01*
X120442244Y-53346549D01*
X120659751Y-53417221D01*
X120659752Y-53417221D01*
X120659755Y-53417222D01*
X120885646Y-53453000D01*
X120885647Y-53453000D01*
X121114353Y-53453000D01*
X121114354Y-53453000D01*
X121340245Y-53417222D01*
X121340248Y-53417221D01*
X121340249Y-53417221D01*
X121557755Y-53346549D01*
X121557755Y-53346548D01*
X121557758Y-53346548D01*
X121761538Y-53242717D01*
X121946566Y-53108286D01*
X122108286Y-52946566D01*
X122169683Y-52862059D01*
X122225012Y-52819396D01*
X122294625Y-52813417D01*
X122356420Y-52846023D01*
X122370314Y-52862056D01*
X122431714Y-52946566D01*
X122593434Y-53108286D01*
X122778462Y-53242717D01*
X122981327Y-53346082D01*
X122982244Y-53346549D01*
X123199751Y-53417221D01*
X123199752Y-53417221D01*
X123199755Y-53417222D01*
X123425646Y-53453000D01*
X123425647Y-53453000D01*
X123654353Y-53453000D01*
X123654354Y-53453000D01*
X123880245Y-53417222D01*
X123880248Y-53417221D01*
X123880249Y-53417221D01*
X124097755Y-53346549D01*
X124097755Y-53346548D01*
X124097758Y-53346548D01*
X124301538Y-53242717D01*
X124486566Y-53108286D01*
X124648286Y-52946566D01*
X124782717Y-52761538D01*
X124886548Y-52557758D01*
X124911774Y-52480119D01*
X124957221Y-52340249D01*
X124957221Y-52340248D01*
X124957222Y-52340245D01*
X124993000Y-52114354D01*
X124993000Y-51885646D01*
X124957222Y-51659755D01*
X124957221Y-51659751D01*
X124957221Y-51659750D01*
X124886549Y-51442244D01*
X124865025Y-51400000D01*
X124782717Y-51238462D01*
X124648286Y-51053434D01*
X124486566Y-50891714D01*
X124301538Y-50757283D01*
X124097755Y-50653450D01*
X123880248Y-50582778D01*
X123710826Y-50555944D01*
X123654354Y-50547000D01*
X123425646Y-50547000D01*
X123350349Y-50558926D01*
X123199753Y-50582778D01*
X123199750Y-50582778D01*
X122982244Y-50653450D01*
X122778461Y-50757283D01*
X122704051Y-50811346D01*
X122593434Y-50891714D01*
X122593432Y-50891716D01*
X122593431Y-50891716D01*
X122431715Y-51053432D01*
X122370318Y-51137938D01*
X122314987Y-51180603D01*
X122245374Y-51186582D01*
X122183579Y-51153976D01*
X122169682Y-51137938D01*
X122108288Y-51053437D01*
X122108286Y-51053434D01*
X121946566Y-50891714D01*
X121761538Y-50757283D01*
X121557755Y-50653450D01*
X121340248Y-50582778D01*
X121170826Y-50555944D01*
X121114354Y-50547000D01*
X120885646Y-50547000D01*
X120810349Y-50558926D01*
X120659753Y-50582778D01*
X120659750Y-50582778D01*
X120442244Y-50653450D01*
X120238461Y-50757283D01*
X120164051Y-50811346D01*
X120053434Y-50891714D01*
X120053432Y-50891716D01*
X120053431Y-50891716D01*
X119891715Y-51053432D01*
X119830318Y-51137938D01*
X119774987Y-51180603D01*
X119705374Y-51186582D01*
X119643579Y-51153976D01*
X119629682Y-51137938D01*
X119568288Y-51053437D01*
X119568286Y-51053434D01*
X119406566Y-50891714D01*
X119221538Y-50757283D01*
X119017755Y-50653450D01*
X118800248Y-50582778D01*
X118630826Y-50555944D01*
X118574354Y-50547000D01*
X118345646Y-50547000D01*
X118270349Y-50558926D01*
X118119753Y-50582778D01*
X118119750Y-50582778D01*
X117902244Y-50653450D01*
X117698461Y-50757283D01*
X117624051Y-50811346D01*
X117513434Y-50891714D01*
X117513432Y-50891716D01*
X117513431Y-50891716D01*
X117351715Y-51053432D01*
X117290318Y-51137938D01*
X117234987Y-51180603D01*
X117165374Y-51186582D01*
X117103579Y-51153976D01*
X117089682Y-51137938D01*
X117028288Y-51053437D01*
X117028286Y-51053434D01*
X116866566Y-50891714D01*
X116681538Y-50757283D01*
X116477755Y-50653450D01*
X116260248Y-50582778D01*
X116090826Y-50555944D01*
X116034354Y-50547000D01*
X115805646Y-50547000D01*
X115730349Y-50558926D01*
X115579753Y-50582778D01*
X115579750Y-50582778D01*
X115362244Y-50653450D01*
X115158461Y-50757283D01*
X115084051Y-50811346D01*
X114973434Y-50891714D01*
X114973432Y-50891716D01*
X114973431Y-50891716D01*
X114811715Y-51053432D01*
X114750318Y-51137938D01*
X114694987Y-51180603D01*
X114625374Y-51186582D01*
X114563579Y-51153976D01*
X114549682Y-51137938D01*
X114488288Y-51053437D01*
X114488286Y-51053434D01*
X114326566Y-50891714D01*
X114141538Y-50757283D01*
X113937755Y-50653450D01*
X113720248Y-50582778D01*
X113550826Y-50555944D01*
X113494354Y-50547000D01*
X113265646Y-50547000D01*
X113190349Y-50558926D01*
X113039753Y-50582778D01*
X113039750Y-50582778D01*
X112822244Y-50653450D01*
X112618461Y-50757283D01*
X112544051Y-50811346D01*
X112433434Y-50891714D01*
X112433432Y-50891716D01*
X112433431Y-50891716D01*
X112271715Y-51053432D01*
X112210318Y-51137938D01*
X112154987Y-51180603D01*
X112085374Y-51186582D01*
X112023579Y-51153976D01*
X112009682Y-51137938D01*
X111948288Y-51053437D01*
X111948286Y-51053434D01*
X111786566Y-50891714D01*
X111601538Y-50757283D01*
X111397755Y-50653450D01*
X111180248Y-50582778D01*
X111010826Y-50555944D01*
X110954354Y-50547000D01*
X110725646Y-50547000D01*
X110650349Y-50558926D01*
X110499753Y-50582778D01*
X110499750Y-50582778D01*
X110282244Y-50653450D01*
X110078461Y-50757283D01*
X110004051Y-50811346D01*
X109893434Y-50891714D01*
X109893432Y-50891716D01*
X109893431Y-50891716D01*
X109731716Y-51053431D01*
X109731709Y-51053440D01*
X109670007Y-51138364D01*
X109614677Y-51181030D01*
X109545063Y-51187008D01*
X109505710Y-51166242D01*
X109488651Y-51164899D01*
X108864612Y-51788939D01*
X108859111Y-51768409D01*
X108780119Y-51631592D01*
X108668408Y-51519881D01*
X108531591Y-51440889D01*
X108511058Y-51435387D01*
X109135099Y-50811347D01*
X109061276Y-50757711D01*
X108857568Y-50653917D01*
X108640124Y-50583265D01*
X108414313Y-50547500D01*
X108185687Y-50547500D01*
X107959875Y-50583265D01*
X107959874Y-50583265D01*
X107742431Y-50653917D01*
X107538719Y-50757713D01*
X107464900Y-50811346D01*
X107464899Y-50811347D01*
X108088940Y-51435387D01*
X108068409Y-51440889D01*
X107931592Y-51519881D01*
X107819881Y-51631592D01*
X107740889Y-51768409D01*
X107735387Y-51788940D01*
X107111347Y-51164899D01*
X107094490Y-51166226D01*
X107075293Y-51181029D01*
X107005679Y-51187007D01*
X106943885Y-51154399D01*
X106929990Y-51138362D01*
X106868288Y-51053437D01*
X106868283Y-51053431D01*
X106706568Y-50891716D01*
X106706566Y-50891714D01*
X106521538Y-50757283D01*
X106317755Y-50653450D01*
X106100248Y-50582778D01*
X105930826Y-50555944D01*
X105874354Y-50547000D01*
X105645646Y-50547000D01*
X105570349Y-50558926D01*
X105419753Y-50582778D01*
X105419750Y-50582778D01*
X105202244Y-50653450D01*
X104998461Y-50757283D01*
X104924051Y-50811346D01*
X104813434Y-50891714D01*
X104813432Y-50891716D01*
X104813431Y-50891716D01*
X104651716Y-51053431D01*
X104651716Y-51053432D01*
X104651714Y-51053434D01*
X104651712Y-51053437D01*
X104517283Y-51238461D01*
X104413450Y-51442244D01*
X104342778Y-51659750D01*
X104342778Y-51659753D01*
X104307000Y-51885646D01*
X80500500Y-51885646D01*
X80500500Y-31124500D01*
X80520185Y-31057461D01*
X80572989Y-31011706D01*
X80624500Y-31000500D01*
X150875500Y-31000500D01*
X150942539Y-31020185D01*
G37*
G04 #@! TD.AperFunction*
M02*
