%TF.GenerationSoftware,KiCad,Pcbnew,9.0.4*%
%TF.CreationDate,2025-09-06T12:28:13+03:00*%
%TF.ProjectId,esp32 flight controller,65737033-3220-4666-9c69-67687420636f,rev?*%
%TF.SameCoordinates,Original*%
%TF.FileFunction,Drillmap*%
%TF.FilePolarity,Positive*%
%FSLAX45Y45*%
G04 Gerber Fmt 4.5, Leading zero omitted, Abs format (unit mm)*
G04 Created by KiCad (PCBNEW 9.0.4) date 2025-09-06 12:28:13*
%MOMM*%
%LPD*%
G01*
G04 APERTURE LIST*
%ADD10C,0.038100*%
%ADD11C,0.200000*%
G04 APERTURE END LIST*
D10*
X8000000Y-3050000D02*
X8000000Y-4100000D01*
X15150000Y-3050000D02*
X8000000Y-3050000D01*
X15150000Y-4100000D02*
X15150000Y-3050000D01*
X8000000Y-4100000D02*
X8000000Y-12600000D01*
X15150000Y-12600000D02*
X15150000Y-4100000D01*
X8000000Y-12600000D02*
X15150000Y-12600000D01*
D11*
X8258872Y-12913389D02*
X8258872Y-12713389D01*
X8258872Y-12713389D02*
X8306491Y-12713389D01*
X8306491Y-12713389D02*
X8335062Y-12722913D01*
X8335062Y-12722913D02*
X8354110Y-12741960D01*
X8354110Y-12741960D02*
X8363634Y-12761008D01*
X8363634Y-12761008D02*
X8373157Y-12799103D01*
X8373157Y-12799103D02*
X8373157Y-12827674D01*
X8373157Y-12827674D02*
X8363634Y-12865770D01*
X8363634Y-12865770D02*
X8354110Y-12884817D01*
X8354110Y-12884817D02*
X8335062Y-12903865D01*
X8335062Y-12903865D02*
X8306491Y-12913389D01*
X8306491Y-12913389D02*
X8258872Y-12913389D01*
X8458872Y-12913389D02*
X8458872Y-12780055D01*
X8458872Y-12818151D02*
X8468396Y-12799103D01*
X8468396Y-12799103D02*
X8477919Y-12789579D01*
X8477919Y-12789579D02*
X8496967Y-12780055D01*
X8496967Y-12780055D02*
X8516015Y-12780055D01*
X8582681Y-12913389D02*
X8582681Y-12780055D01*
X8582681Y-12713389D02*
X8573158Y-12722913D01*
X8573158Y-12722913D02*
X8582681Y-12732436D01*
X8582681Y-12732436D02*
X8592205Y-12722913D01*
X8592205Y-12722913D02*
X8582681Y-12713389D01*
X8582681Y-12713389D02*
X8582681Y-12732436D01*
X8706491Y-12913389D02*
X8687443Y-12903865D01*
X8687443Y-12903865D02*
X8677919Y-12884817D01*
X8677919Y-12884817D02*
X8677919Y-12713389D01*
X8811253Y-12913389D02*
X8792205Y-12903865D01*
X8792205Y-12903865D02*
X8782681Y-12884817D01*
X8782681Y-12884817D02*
X8782681Y-12713389D01*
X9039824Y-12913389D02*
X9039824Y-12713389D01*
X9039824Y-12713389D02*
X9106491Y-12856246D01*
X9106491Y-12856246D02*
X9173158Y-12713389D01*
X9173158Y-12713389D02*
X9173158Y-12913389D01*
X9354110Y-12913389D02*
X9354110Y-12808627D01*
X9354110Y-12808627D02*
X9344586Y-12789579D01*
X9344586Y-12789579D02*
X9325539Y-12780055D01*
X9325539Y-12780055D02*
X9287443Y-12780055D01*
X9287443Y-12780055D02*
X9268396Y-12789579D01*
X9354110Y-12903865D02*
X9335062Y-12913389D01*
X9335062Y-12913389D02*
X9287443Y-12913389D01*
X9287443Y-12913389D02*
X9268396Y-12903865D01*
X9268396Y-12903865D02*
X9258872Y-12884817D01*
X9258872Y-12884817D02*
X9258872Y-12865770D01*
X9258872Y-12865770D02*
X9268396Y-12846722D01*
X9268396Y-12846722D02*
X9287443Y-12837198D01*
X9287443Y-12837198D02*
X9335062Y-12837198D01*
X9335062Y-12837198D02*
X9354110Y-12827674D01*
X9449348Y-12780055D02*
X9449348Y-12980055D01*
X9449348Y-12789579D02*
X9468396Y-12780055D01*
X9468396Y-12780055D02*
X9506491Y-12780055D01*
X9506491Y-12780055D02*
X9525539Y-12789579D01*
X9525539Y-12789579D02*
X9535062Y-12799103D01*
X9535062Y-12799103D02*
X9544586Y-12818151D01*
X9544586Y-12818151D02*
X9544586Y-12875293D01*
X9544586Y-12875293D02*
X9535062Y-12894341D01*
X9535062Y-12894341D02*
X9525539Y-12903865D01*
X9525539Y-12903865D02*
X9506491Y-12913389D01*
X9506491Y-12913389D02*
X9468396Y-12913389D01*
X9468396Y-12913389D02*
X9449348Y-12903865D01*
X9630300Y-12894341D02*
X9639824Y-12903865D01*
X9639824Y-12903865D02*
X9630300Y-12913389D01*
X9630300Y-12913389D02*
X9620777Y-12903865D01*
X9620777Y-12903865D02*
X9630300Y-12894341D01*
X9630300Y-12894341D02*
X9630300Y-12913389D01*
X9630300Y-12789579D02*
X9639824Y-12799103D01*
X9639824Y-12799103D02*
X9630300Y-12808627D01*
X9630300Y-12808627D02*
X9620777Y-12799103D01*
X9620777Y-12799103D02*
X9630300Y-12789579D01*
X9630300Y-12789579D02*
X9630300Y-12808627D01*
M02*
